<?xml version="1.0" encoding="utf-8"?>
<!-- Generator: Adobe Illustrator 25.2.0, SVG Export Plug-In . SVG Version: 6.00 Build 0)  -->
<svg version="1.1" id="Capa_2_1_" xmlns="http://www.w3.org/2000/svg" xmlns:xlink="http://www.w3.org/1999/xlink" x="0px" y="0px"
	 viewBox="0 0 1000 1000" style="enable-background:new 0 0 1000 1000;" xml:space="preserve">
<style type="text/css">
	.st0{fill:none;stroke:#1D1D1B;stroke-width:0.7895;stroke-miterlimit:10;}
	.st1{fill:#B11F24;}
	.st2{fill:none;}
	.st3{fill:#E19217;}
	.st4{fill:#EAC179;}
</style>
<g>
	<path class="st0" d="M715.1,368.3c0,144.7-117.3,261.9-261.9,261.9c-144.7,0-261.9-117.3-261.9-261.9
		c0-144.7,117.2-261.9,261.9-261.9C597.8,106.4,715.1,223.6,715.1,368.3z"/>
	<path class="st0" d="M715.1,368.3c0,144.7-117.3,261.9-261.9,261.9c-144.7,0-261.9-117.3-261.9-261.9
		c0-144.7,117.2-261.9,261.9-261.9C597.8,106.4,715.1,223.6,715.1,368.3z"/>
	<path class="st1" d="M623.2,353.1c0,93.9-76.1,170.1-170.1,170.1c-75.3,0-139.2-49-161.5-116.9c10.3,23.4,33.7,39.7,60.9,39.7
		c36.8,0,66.6-29.8,66.6-66.6c0-3.9-0.3-7.7-1-11.3c1.5,0.2,3.1,0.2,4.7,0.2c36.8,0,66.6-29.8,66.6-66.6c36.8,0,66.6-29.8,66.6-66.6
		c0-6.9-1-13.5-3-19.7C595.6,246.3,623.2,296.5,623.2,353.1z"/>
	<path class="st0" d="M715.1,368.3c0,144.7-117.3,261.9-261.9,261.9c-144.7,0-261.9-117.3-261.9-261.9
		c0-144.7,117.2-261.9,261.9-261.9C597.8,106.4,715.1,223.6,715.1,368.3z"/>
	<path class="st2" d="M545.9,830.6c-23,30.2-17.1,73.4,13.2,96.3c30.2,23,73.4,17.1,96.4-13.1c23-30.2,17.1-73.4-13.1-96.4
		C612,794.5,568.9,800.4,545.9,830.6z"/>
	<path class="st1" d="M579.7,789.2c-0.4,0.1-0.8,0.2-1.2,0.3c-17.7,4.7-34,15.2-46,30.9c-28.6,37.7-21.3,91.4,16.4,120
		c36.2,27.5,87.1,21.8,116.5-12.1c1.2-1.4,10.4-12.3,13.7-16c20.3-23.2,49.6-34.5,78.9-28.8c-9.5-26.3-26.4-50.3-50.3-68.5
		C669.7,786.2,622.5,778.2,579.7,789.2z M655.4,913.8c-23,30.2-66.1,36.1-96.4,13.1c-30.2-23-36.1-66.1-13.2-96.3
		c23-30.2,66.1-36.1,96.4-13.1C672.5,840.5,678.4,883.6,655.4,913.8z"/>
	<path class="st2" d="M453.2,106.4c-144.7,0-261.9,117.3-261.9,261.9c0,144.7,117.2,261.9,261.9,261.9
		c144.7,0,261.9-117.3,261.9-261.9C715.1,223.6,597.8,106.4,453.2,106.4z"/>
	<path class="st3" d="M783.4,689.3l0.3-1.6c1.1-5.5,2.1-10.9,3.2-16.1c14.4-73.6,22.9-117.1,82.3-177.3c-3.4-29.2-9-57.7-16.6-85.3
		c-6.2,3.6-12.3,7.4-18.3,11.5c-69.4,63.5-77,102.4-92,179.5c-1,5.1-2,10.4-3.1,15.8c-1.8,16-16,83.7-51.2,144.6
		c20.2,14.7,38.6,31.9,54.7,51.2c29.6-56.6,40-116.2,40.8-121.6L783.4,689.3z"/>
	<path class="st4" d="M811.4,692.8c-1.8,15.9-15.8,82.8-50.4,143.3c7.5,11.1,14.3,22.8,20.3,35.1c58-89.4,91.8-196,91.8-310.5
		c0-9.5-0.3-18.9-0.7-28.2c-38.4,45.2-45.7,82.5-57.8,144.5C813.5,682.1,812.5,687.4,811.4,692.8z"/>
	<path class="st1" d="M711.1,612.4l0.3-1.6c1.1-5.5,2.1-10.9,3.2-16.1c15.8-80.9,24.5-125.4,101.4-195.6l1.6-1.2
		c8.8-6,17.7-11.5,26.6-16.6c-35.4-106.8-101.4-199.6-187.7-268c-1.2-1-2.5-2-3.7-2.9c-55.2-42.8-124.4-68.2-199.7-68.2
		C273,42.1,127,188.2,127,368.3c0,173,134.7,314.6,305,325.5c7,0.5,61.3,3.2,80.1,4.5c55.7,3.8,107.8,20,152.6,46.8
		c34-59.5,45.6-126.3,46.5-132L711.1,612.4z M453.2,630.2c-144.7,0-261.9-117.3-261.9-261.9c0-144.7,117.2-261.9,261.9-261.9
		c144.7,0,261.9,117.3,261.9,261.9C715.1,513,597.8,630.2,453.2,630.2z"/>
	<circle class="st1" cx="600.7" cy="872.2" r="47.2"/>
</g>
</svg>
